<svg width="16" height="19" viewBox="0 0 16 19" fill="none" xmlns="http://www.w3.org/2000/svg">
<path d="M1.52616 5.66861C1.40575 5.66861 1.30814 5.76623 1.30814 5.88664V17.2238C1.30814 17.3443 1.40575 17.4419 1.52616 17.4419H13.7355C13.8559 17.4419 13.9535 17.3443 13.9535 17.2238V5.88664C13.9535 5.76623 13.8559 5.66861 13.7355 5.66861H1.52616ZM0 5.88664C0 5.04376 0.683285 4.36047 1.52616 4.36047H13.7355C14.5783 4.36047 15.2616 5.04376 15.2616 5.88664V17.2238C15.2616 18.0667 14.5783 18.75 13.7355 18.75H1.52616C0.683285 18.75 0 18.0667 0 17.2238V5.88664Z" fill="white"/>
<path d="M7.63022 1.30814C6.30569 1.30814 5.23197 2.38188 5.23197 3.7064V6.75872C5.23197 7.11995 4.93913 7.41279 4.5779 7.41279C4.21667 7.41279 3.92383 7.11995 3.92383 6.75872V3.7064C3.92383 1.65941 5.58324 0 7.63022 0C9.6772 0 11.3366 1.65941 11.3366 3.7064V6.75872C11.3366 7.11995 11.0438 7.41279 10.6825 7.41279C10.3213 7.41279 10.0285 7.11995 10.0285 6.75872V3.7064C10.0285 2.38188 8.95476 1.30814 7.63022 1.30814Z" fill="white"/>
</svg>
