<svg width="36" height="42" viewBox="0 0 36 42" fill="none" xmlns="http://www.w3.org/2000/svg">
<path fill-rule="evenodd" clip-rule="evenodd" d="M25.9927 28.584H17.5687C17.2567 28.584 17.0167 28.344 17.0167 28.032C17.0167 27.744 17.2567 27.48 17.5687 27.48H25.9927V23.4H24.6967H24.6727H24.6487H24.6247H24.5767L24.5287 23.376H24.4807H24.4327H24.4087L24.3607 23.352H24.3127L24.2647 23.328H24.2407H24.1927L24.1447 23.304L24.1207 23.28H24.0727C24.0487 23.256 24.0247 23.256 24.0007 23.232C23.9527 23.232 23.9047 23.208 23.8807 23.184C23.3287 22.896 22.9687 22.32 22.9687 21.648V12.984C22.9687 12.432 23.2087 11.952 23.5927 11.64L23.6407 11.616L23.6647 11.592L23.6887 11.568H23.7127L23.7367 11.544L23.7607 11.52H23.7847V11.496H23.8087L23.8327 11.472H23.8567L23.8807 11.448H23.9047L23.9287 11.424C24.1687 11.304 24.4327 11.232 24.6967 11.232H25.9927V10.416C25.9927 9.76801 25.4887 9.26402 24.8407 9.26402H11.1607C10.5127 9.26402 10.0087 9.76801 10.0087 10.416V13.416H18.4327C18.7447 13.416 18.9847 13.656 18.9847 13.968C18.9847 14.256 18.7447 14.52 18.4327 14.52H10.0087V18.6H11.3047H11.3287H11.3527H11.3767H11.4007H11.4247L11.4727 18.624H11.5207H11.5447H11.5687H11.5927H11.6167L11.6407 18.648H11.6647H11.6887L11.7367 18.672H11.7607H11.8087V18.696H11.8567L11.8807 18.72H11.9047H11.9287L11.9767 18.744L12.0007 18.768H12.0487V18.792H12.0727H12.0967L12.1207 18.816L12.1687 18.84L12.1927 18.864L12.2407 18.888H12.2647L12.2887 18.912L12.3127 18.936L12.3367 18.96L12.3607 18.984L12.3847 19.008L12.4327 19.032H12.4567V19.056H12.4807V19.08H12.5047V19.104C12.5287 19.128 12.5527 19.152 12.6007 19.176V19.2L12.6487 19.248L12.6727 19.272L12.6967 19.296V19.32L12.7207 19.368L12.7447 19.392L12.7687 19.416C12.7687 19.44 12.7927 19.464 12.7927 19.488L12.8167 19.512L12.8407 19.536V19.56L12.8647 19.584V19.608L12.8887 19.632V19.68L12.9127 19.704C12.9127 19.728 12.9367 19.752 12.9367 19.752V19.776V19.8H12.9607V19.824V19.848V19.872V19.896C12.9847 19.896 12.9847 19.92 12.9847 19.944L13.0087 19.992V20.04V20.088V20.112L13.0327 20.16V20.208V20.256V20.304V20.352V27.984V29.016C13.0327 29.112 13.0327 29.208 13.0087 29.28C13.0087 29.328 13.0087 29.376 12.9847 29.4C12.9847 29.448 12.9607 29.496 12.9607 29.544L12.9367 29.568V29.592V29.616L12.9127 29.664C12.9127 29.688 12.8887 29.712 12.8887 29.736L12.8647 29.76V29.784L12.8407 29.808L12.8167 29.832V29.856L12.7927 29.88V29.904V29.928H12.7687V29.952L12.7447 29.976V30H12.7207V30.024H12.6967V30.048C12.6727 30.072 12.6727 30.072 12.6727 30.096L12.6247 30.12L12.6007 30.144V30.168C12.2887 30.528 11.8087 30.768 11.3047 30.768H10.0087V31.584C10.0087 32.232 10.5127 32.736 11.1607 32.736H24.8407C25.4887 32.736 25.9927 32.232 25.9927 31.584V28.584ZM12.7687 19.416C12.7687 19.44 12.7927 19.464 12.7927 19.488L12.7687 19.416ZM27.1207 41.472H8.88067C7.46467 41.472 6.31267 40.32 6.31267 38.928V35.88V30.768H2.61667H2.56867L2.52067 30.744H2.49667H2.44867H2.40067H2.35267L2.30467 30.72H2.28067H2.25667H2.23267L2.18467 30.696C1.44067 30.504 0.888672 29.832 0.888672 29.016V20.352C0.888672 19.392 1.65667 18.6 2.61667 18.6H6.31267V6.12002V3.07202C6.31267 1.68002 7.46467 0.528015 8.88067 0.528015H27.1207C28.5367 0.528015 29.6887 1.68002 29.6887 3.07202V6.09601V6.12002V6.14402V11.232H33.3847C34.3447 11.232 35.1127 12.024 35.1127 12.984V21.648C35.1127 22.608 34.3447 23.4 33.3847 23.4H29.6887V35.88V38.928C29.6887 40.32 28.5367 41.472 27.1207 41.472ZM6.86467 29.664H8.32867L7.39267 28.728L7.36867 28.704L4.32067 25.656L1.96867 28.032V29.016V29.04V29.064V29.088V29.112L1.99267 29.136V29.16V29.184V29.208L2.01667 29.232V29.256V29.28H2.04067V29.304V29.328L2.06467 29.352V29.376H2.08867V29.4L2.11267 29.424L2.13667 29.448L2.16067 29.472L2.18467 29.496V29.52H2.20867L2.23267 29.544L2.25667 29.568H2.28067L2.30467 29.592H2.32867L2.35267 29.616H2.37667H2.40067V29.64H2.42467H2.44867H2.47267L2.49667 29.664H2.52067H2.54467H2.56867H2.59267H2.61667H6.86467ZM24.0727 21.744V21.768V21.792V21.816V21.84C24.0967 21.84 24.0967 21.864 24.0967 21.888V21.912H24.1207V21.936V21.96H24.1447V21.984L24.1687 22.008V22.032H24.1927V22.056L24.2167 22.08C24.2407 22.104 24.2407 22.128 24.2647 22.128V22.152C24.3847 22.248 24.5527 22.296 24.6967 22.296H26.5447H26.5687H29.1367H29.1607H33.3847C33.7447 22.296 34.0327 22.008 34.0327 21.648V12.984C34.0327 12.624 33.7447 12.336 33.3847 12.336H24.6967C24.4087 12.336 24.1447 12.552 24.0727 12.816V12.84V12.864V12.888V12.912V12.936H24.0487V12.96V12.984V21.648V21.672V21.696H24.0727V21.72V21.744ZM7.41667 30.768V35.328H28.5847V23.4H27.0967V28.008V28.032V28.056V31.584C27.0967 32.832 26.0887 33.84 24.8407 33.84H11.1607C9.91267 33.84 8.90467 32.832 8.90467 31.584V30.768H7.41667ZM7.41667 36.432V38.928C7.41667 39.72 8.06467 40.392 8.88067 40.392H27.1207C27.9367 40.392 28.5847 39.72 28.5847 38.928V36.432H7.41667ZM27.0967 11.232H28.5847V6.67202H7.41667V18.6H8.90467V10.416C8.90467 9.16802 9.91267 8.16002 11.1607 8.16002H24.8407C26.0887 8.16002 27.0967 9.16802 27.0967 10.416V11.232ZM28.5847 5.56802V3.07202C28.5847 2.28002 27.9367 1.60802 27.1207 1.60802H22.5127V2.08802C22.5127 2.97602 21.7927 3.67202 20.9287 3.67202H15.0727C14.2087 3.67202 13.4887 2.97602 13.4887 2.08802V1.60802H8.88067C8.06467 1.60802 7.41667 2.28002 7.41667 3.07202V5.56802H28.5847ZM14.5927 1.60802V2.08802C14.5927 2.37602 14.8087 2.59202 15.0727 2.59202H20.9287C21.1927 2.59202 21.4087 2.37602 21.4087 2.08802V1.60802H14.5927ZM20.0407 38.952H15.7687C15.4807 38.952 15.2407 38.712 15.2407 38.4C15.2407 38.112 15.4807 37.872 15.7687 37.872H20.0407C20.3527 37.872 20.5927 38.112 20.5927 38.4C20.5927 38.712 20.3527 38.952 20.0407 38.952ZM9.84067 29.664H11.3047C11.6407 29.664 11.9527 29.376 11.9527 29.016V28.224L10.2967 26.568L8.54467 28.344L9.55267 29.352L9.74467 29.544H9.76867V29.568C9.79267 29.592 9.81667 29.616 9.84067 29.664ZM11.9527 26.664V20.352C11.9527 20.232 11.9287 20.136 11.8807 20.064C11.8567 20.04 11.8567 20.04 11.8567 20.016L11.8327 19.992V19.968H11.8087V19.944L11.7847 19.92V19.896H11.7607L11.7367 19.872L11.7127 19.848L11.6887 19.824H11.6647V19.8H11.6407L11.6167 19.776H11.5927V19.752H11.5687C11.4967 19.728 11.4007 19.704 11.3047 19.704H2.61667C2.25667 19.704 1.96867 19.992 1.96867 20.352V26.472L3.93667 24.504C4.15267 24.288 4.51267 24.288 4.70467 24.504L7.77667 27.552L9.91267 25.416C10.1287 25.2 10.4887 25.2 10.6807 25.416L11.9527 26.664ZM24.0727 23.28C24.0487 23.256 24.0247 23.256 24.0007 23.232L24.0727 23.28ZM7.92067 25.128C6.74467 25.128 5.78467 24.168 5.78467 22.992C5.78467 21.816 6.74467 20.856 7.92067 20.856C9.09667 20.856 10.0567 21.816 10.0567 22.992C10.0567 24.168 9.09667 25.128 7.92067 25.128ZM7.92067 21.936C7.34467 21.936 6.86467 22.416 6.86467 22.992C6.86467 23.568 7.34467 24.048 7.92067 24.048C8.49667 24.048 8.97667 23.568 8.97667 22.992C8.97667 22.416 8.49667 21.936 7.92067 21.936ZM32.1607 15.336H28.6807C28.3927 15.336 28.1287 15.096 28.1287 14.784C28.1287 14.496 28.3927 14.232 28.6807 14.232H32.1607C32.4487 14.232 32.6887 14.496 32.6887 14.784C32.6887 15.096 32.4487 15.336 32.1607 15.336ZM26.9287 15.336H25.9447C25.6327 15.336 25.3927 15.096 25.3927 14.784C25.3927 14.496 25.6327 14.232 25.9447 14.232H26.9287C27.2407 14.232 27.4807 14.496 27.4807 14.784C27.4807 15.096 27.2407 15.336 26.9287 15.336ZM32.1607 17.856H31.2727C30.9607 17.856 30.7207 17.616 30.7207 17.328C30.7207 17.016 30.9607 16.776 31.2727 16.776H32.1607C32.4487 16.776 32.6887 17.016 32.6887 17.328C32.6887 17.616 32.4487 17.856 32.1607 17.856ZM29.0407 17.856H25.9447C25.6327 17.856 25.3927 17.616 25.3927 17.328C25.3927 17.016 25.6327 16.776 25.9447 16.776H29.0407C29.3287 16.776 29.5927 17.016 29.5927 17.328C29.5927 17.616 29.3287 17.856 29.0407 17.856ZM32.1607 20.4H29.4727C29.1847 20.4 28.9207 20.16 28.9207 19.848C28.9207 19.56 29.1847 19.296 29.4727 19.296H32.1607C32.4487 19.296 32.6887 19.56 32.6887 19.848C32.6887 20.16 32.4487 20.4 32.1607 20.4ZM27.1927 20.4H25.9447C25.6327 20.4 25.3927 20.16 25.3927 19.848C25.3927 19.56 25.6327 19.296 25.9447 19.296H27.1927C27.4807 19.296 27.7447 19.56 27.7447 19.848C27.7447 20.16 27.4807 20.4 27.1927 20.4Z" fill="#0F73F6"/>
</svg>
