<svg width="21" height="17" viewBox="0 0 21 17" fill="none" xmlns="http://www.w3.org/2000/svg">
<path d="M20.8385 5.92487C20.7251 5.72013 20.5588 5.54961 20.3569 5.43111C20.1551 5.31261 19.9251 5.25049 19.6911 5.25123H7.25182C6.83243 5.25121 6.42434 5.38723 6.08882 5.63886C5.7533 5.89049 5.50845 6.24416 5.39102 6.64677L2.92887 15.0884C2.79925 15.5328 2.52899 15.9232 2.15866 16.2009C1.78833 16.4787 1.33791 16.6288 0.875 16.6288H16.5182C16.9812 16.6288 17.4317 16.4786 17.8021 16.2008C18.1725 15.923 18.4428 15.5326 18.5725 15.0881L20.9361 6.98451C20.9911 6.81026 21.0108 6.6268 20.994 6.44486C20.9772 6.26291 20.9244 6.08613 20.8385 5.92487Z" fill="#0F73F6"/>
<path d="M2.08735 14.8433L4.55103 6.40207C4.72266 5.81851 5.07823 5.30601 5.56475 4.94092C6.05128 4.57582 6.64274 4.37768 7.25101 4.37599H18.3791V3.93839C18.3791 3.47415 18.1947 3.02893 17.8665 2.70067C17.5382 2.37241 17.093 2.18799 16.6287 2.18799H9.95786C9.82746 2.18799 9.69869 2.15893 9.58093 2.10291C9.46317 2.0469 9.35938 1.96534 9.27709 1.86417L8.4169 0.80645C8.21199 0.554504 7.95349 0.351395 7.66022 0.211893C7.36695 0.0723923 7.04627 6.48621e-06 6.72152 0H1.75039C1.28616 0 0.840941 0.184416 0.512679 0.512679C0.184416 0.840941 0 1.28616 0 1.75039L0 14.8784C0 15.1105 0.092208 15.3331 0.256339 15.4972C0.420471 15.6613 0.643081 15.7536 0.875197 15.7536C1.14837 15.7528 1.41398 15.6638 1.63243 15.4997C1.85087 15.3357 2.01044 15.1055 2.08735 14.8433Z" fill="#0F73F6"/>
</svg>
