<svg width="48" height="46" viewBox="0 0 48 46" fill="none" xmlns="http://www.w3.org/2000/svg">
<path d="M23.1585 18.858H16.0723V11.7537" stroke="white" stroke-width="1.12" stroke-miterlimit="10" stroke-linecap="round" stroke-linejoin="round"/>
<path d="M46.9688 1.02722H1.03125V6.06713H46.9688V1.02722Z" stroke="white" stroke-width="1.12" stroke-miterlimit="10" stroke-linecap="round" stroke-linejoin="round"/>
<path d="M3.44727 30.9538V6.76306" stroke="white" stroke-width="1.12" stroke-miterlimit="10" stroke-linecap="round" stroke-linejoin="round"/>
<path d="M44.5527 6.76306V30.9538" stroke="white" stroke-width="1.12" stroke-miterlimit="10" stroke-linecap="round" stroke-linejoin="round"/>
<path d="M24 37.4355V39.1928" stroke="white" stroke-width="1.12" stroke-miterlimit="10" stroke-linecap="round" stroke-linejoin="round"/>
<path d="M23.9994 44.9727C25.4553 44.9727 26.6356 43.7897 26.6356 42.3303C26.6356 40.8709 25.4553 39.6879 23.9994 39.6879C22.5435 39.6879 21.3633 40.8709 21.3633 42.3303C21.3633 43.7897 22.5435 44.9727 23.9994 44.9727Z" stroke="white" stroke-width="1.12" stroke-miterlimit="10" stroke-linecap="round" stroke-linejoin="round"/>
<path d="M16.0733 26.804C20.4512 26.804 24.0002 23.2466 24.0002 18.8583C24.0002 14.47 20.4512 10.9126 16.0733 10.9126C11.6955 10.9126 8.14648 14.47 8.14648 18.8583C8.14648 23.2466 11.6955 26.804 16.0733 26.804Z" stroke="white" stroke-width="1.12" stroke-miterlimit="10" stroke-linecap="round" stroke-linejoin="round"/>
<path d="M38.8885 10.9126H28.668V17.1771H38.8885V10.9126Z" stroke="white" stroke-width="1.12" stroke-miterlimit="10" stroke-linecap="round" stroke-linejoin="round"/>
<path d="M28.668 21.5317H38.8885" stroke="white" stroke-width="1.12" stroke-miterlimit="10" stroke-linecap="round" stroke-linejoin="round"/>
<path d="M28.668 25.6791H38.8885" stroke="white" stroke-width="1.12" stroke-miterlimit="10" stroke-linecap="round" stroke-linejoin="round"/>
<path d="M46.9688 31.6497H1.03125V36.6896H46.9688V31.6497Z" stroke="white" stroke-width="1.12" stroke-miterlimit="10" stroke-linecap="round" stroke-linejoin="round"/>
</svg>
