<svg width="54" height="44" viewBox="0 0 54 44" fill="none" xmlns="http://www.w3.org/2000/svg">
<path fill-rule="evenodd" clip-rule="evenodd" d="M26.8438 0L27.6971 1.90739L29.6282 0.648907L28.4222 3.31254H25.3107L24.0596 0.648907L26.0066 1.87189L26.8438 0ZM9.33843 8.23455C10.3141 7.13206 11.212 5.92199 11.9828 4.70551C12.0518 4.59668 12.129 4.48029 12.2103 4.35769C12.7779 3.50191 13.546 2.34378 13.1131 1.34613C11.3102 2.11165 9.58558 3.6078 8.86629 5.34276C8.46922 6.30025 7.88197 7.83995 8.85486 8.76516L8.85522 8.76478L8.87233 8.78036C7.67811 10.099 6.68261 11.5758 5.89874 13.165C6.4171 11.8651 6.81811 10.488 7.0751 9.15131C7.09717 9.03654 7.12245 8.91497 7.14881 8.78829L7.14883 8.78819C7.35849 7.78017 7.63546 6.44859 6.89431 5.64359C5.53147 6.92821 4.5526 8.9496 4.46542 10.7222C4.41475 11.7525 4.36966 13.3668 5.5333 13.9487C4.90429 15.3784 4.44081 16.8895 4.15167 18.4509C4.21217 17.2528 4.16809 16.0389 4.01976 14.8911C4.00545 14.7803 3.99189 14.663 3.9778 14.541C3.8593 13.5157 3.70282 12.1618 2.74659 11.6255C1.8904 13.2893 1.59572 15.5001 2.03524 17.2116C2.28394 18.1803 2.70099 19.7111 3.93155 19.9319C3.74947 21.5486 3.7505 23.2071 3.94389 24.875C3.61803 23.5906 3.19 22.3237 2.68508 21.1394C2.6441 21.0433 2.60148 20.9405 2.55687 20.8329L2.55685 20.8328L2.55675 20.8326L2.55668 20.8324C2.11836 19.7752 1.48708 18.2527 0.310609 18.0137C-0.07564 20.1413 0.231528 22.6068 1.28592 24.3854C1.86406 25.3607 2.84929 26.8198 4.21354 26.602C4.56128 28.3611 5.11491 29.9868 5.84658 31.4689C5.07955 30.2576 4.22088 29.0921 3.31096 28.0344C3.24022 27.9522 3.16562 27.8635 3.08738 27.7706C2.32971 26.8705 1.2311 25.5653 0 25.7329C0.251243 27.9797 1.31101 30.3629 2.9431 31.7651C3.85183 32.5458 5.34297 33.6452 6.62514 32.884C7.61322 34.5039 8.83183 35.9233 10.2366 37.1259C10.4226 37.334 10.6193 37.5311 10.8251 37.715C9.33188 36.6157 7.75403 35.5856 6.17222 34.6951C6.06613 34.6354 5.95313 34.57 5.83437 34.5012C4.75251 33.8748 3.19237 32.9714 2.02148 33.5825C3.04636 35.8132 5.00855 37.8211 7.20951 38.5828C8.45846 39.0151 10.4732 39.5513 11.4812 38.2065L11.4803 38.2058C11.4969 38.1821 11.513 38.1582 11.5285 38.134C13.3442 39.4238 15.4099 40.3936 17.6485 41.0153C17.9301 41.1158 18.2155 41.2026 18.5021 41.2752C16.3537 40.9153 14.1815 40.6041 12.0407 40.3787C11.8785 40.3616 11.7 40.3391 11.5097 40.3152L11.5096 40.3152C10.1524 40.1447 8.19721 39.899 7.28809 40.9828C9.37514 42.83 12.3725 43.9272 15.0669 43.7035C16.381 43.5944 19.2757 43.2962 19.5121 41.4482L19.5109 41.448L19.5115 41.4446C20.6581 41.6566 21.8415 41.7823 23.0527 41.8182L23.0581 41.6333C21.8513 41.5975 20.6726 41.4721 19.5311 41.2603C19.6007 40.0415 18.4926 38.8489 17.6709 37.9647C17.5542 37.8391 17.4432 37.7196 17.3422 37.6072C16.1286 36.2566 14.864 34.855 13.4461 33.6872C12.3838 34.9367 12.9454 36.6225 13.596 37.8254C14.1669 38.8809 15.1203 39.7442 16.235 40.3724C14.5704 39.7738 13.0206 38.9699 11.6214 37.9742C12.1522 36.9591 11.8235 35.5751 11.5668 34.4944C11.5413 34.3867 11.5164 34.2821 11.4932 34.1812C11.1216 32.5648 10.6072 30.8817 9.84281 29.3882C8.50986 30.1018 8.35435 31.751 8.42525 33.0408C8.48625 34.1501 8.91647 35.2904 9.5826 36.2832C8.51249 35.2516 7.56937 34.0809 6.77649 32.7797C7.72431 32.0542 7.91191 30.6438 8.05771 29.5476L8.05777 29.5471L8.05796 29.5457C8.06697 29.4779 8.07583 29.4114 8.0847 29.3462C8.29333 27.8126 8.39156 26.1137 8.13237 24.5234C6.7043 24.7081 6.12757 26.1901 5.7924 27.3141C5.4589 28.4324 5.50111 29.8178 5.86521 31.0856C5.21139 29.698 4.71281 28.1872 4.39173 26.5615C5.48402 26.2398 6.0734 25.0272 6.53618 24.0751L6.53624 24.075L6.53681 24.0738L6.53746 24.0724L6.53803 24.0713L6.53827 24.0708L6.53876 24.0698C6.57117 24.0031 6.60296 23.9377 6.63426 23.874C7.28757 22.5444 7.83977 20.9932 8.03744 19.4713C6.6979 19.1888 5.754 20.3659 5.13838 21.2796C4.50743 22.216 4.15265 23.5108 4.11803 24.7909C3.93336 23.1579 3.9346 21.5347 4.11284 19.9523C5.12011 20.0026 5.94009 19.1253 6.56948 18.452L6.56974 18.4517C6.6064 18.4125 6.6424 18.374 6.67776 18.3364C7.58246 17.3741 8.43889 16.1672 8.98277 14.9046C7.91771 14.316 6.83502 15.073 6.0657 15.6879C5.28951 16.3082 4.71423 17.2764 4.36397 18.3107C4.65255 16.8235 5.10121 15.3838 5.70205 14.0193C6.62739 14.3462 7.64645 13.7873 8.43466 13.3551C8.48106 13.3296 8.52667 13.3046 8.57141 13.2803C9.7353 12.6464 10.9227 11.7718 11.857 10.7596C11.0129 9.85725 9.73107 10.2274 8.79284 10.5652C7.98118 10.8575 7.2349 11.4536 6.63045 12.1806C7.30424 11.006 8.1013 9.90416 9.01567 8.89593C9.80193 9.46338 10.9314 9.27093 11.8155 9.12029C11.8785 9.10955 11.9403 9.09902 12.0006 9.08899C13.386 8.85884 14.8593 8.41294 16.1666 7.78175C15.6291 6.62255 14.1811 6.5741 13.1735 6.59733C12.3478 6.61639 11.4454 6.88238 10.6259 7.32409C11.2615 6.77527 11.9394 6.26555 12.6585 5.79964C13.8477 5.62282 15.0227 5.26415 16.1808 4.91061C16.5822 4.78807 16.9816 4.66616 17.3788 4.55264C17.9377 4.39293 18.5053 4.2452 19.0749 4.09695C20.4208 3.74667 21.7778 3.39349 23.0561 2.87264C21.0636 2.06504 18.7147 2.22826 16.8113 2.77842C15.1484 3.25904 13.2018 4.17084 12.2402 5.85398L12.2432 5.85364C11.3145 6.48236 10.4565 7.1847 9.67211 7.95016C9.55692 8.04135 9.44548 8.13624 9.33843 8.23455ZM22.7033 8.94424L22.3791 7.9537L22.0549 8.94424H21.0059L21.8546 9.55642L21.5304 10.5469L22.3791 9.93469L23.2277 10.5469L22.9036 9.55642L23.7522 8.94424H22.7033ZM18.7119 7.95508L19.0296 8.94561H20.0576L19.2259 9.55779L19.5436 10.5483L18.7119 9.93614L17.8802 10.5483L18.1979 9.55779L17.3662 8.94561H18.3943L18.7119 7.95508ZM17.0619 15.0428V13.226H16.0647V14.9524C16.0647 15.2614 15.782 15.4687 15.3058 15.4687C14.8072 15.4687 14.5356 15.2689 14.5356 14.9486V13.226H13.5273V14.9486C13.5273 15.8456 14.2528 16.2264 15.2649 16.2264C16.3475 16.2264 17.0619 15.8419 17.0619 15.0428ZM20.4195 16.1849V15.3971H18.6411V13.226H17.6328V16.1849H20.4195ZM23.4158 13.226V13.9686H22.1806V16.1849H21.1612V13.9686H19.9297V13.226H23.4158ZM24.7565 16.1849V13.226H23.7334V16.1849H24.7565ZM29.4507 13.226V16.1849H28.5056V14.5868L27.8137 16.1849H26.9653L26.2808 14.5868V16.1849H25.332V13.226H26.6343L27.3932 15.0014L28.1894 13.226H29.4507ZM31.0305 15.6383H32.6081L32.8648 16.1849H33.94L32.4667 13.226H31.265L29.7061 16.1849H30.7589L31.0305 15.6383ZM32.2918 14.9749H31.358L31.7263 14.2625L31.8379 13.9912L31.9421 14.2588L32.2918 14.9749ZM37.1032 13.226V13.9686H35.8682V16.1849H34.8487V13.9686H33.6172V13.226H37.1032ZM40.4932 16.1849V15.4499H38.3993V15.0654H40.4077V14.3455H38.3993V13.9648H40.4675V13.226H37.417V16.1849H40.4932ZM20.1669 17.7578H21.1306L20.0627 20.7166H18.9689C18.9689 20.7166 18.3847 18.9488 18.381 18.8999C18.3773 18.9488 17.7895 20.7166 17.7895 20.7166H16.6994L15.6055 17.7578H16.6882C16.6882 17.7578 17.3207 19.6198 17.3207 19.665C17.3207 19.6198 17.9048 17.7578 17.9048 17.7578H18.9503C18.9503 17.7578 19.5381 19.6198 19.5381 19.665C19.5381 19.6198 20.1669 17.7578 20.1669 17.7578ZM22.4499 20.7166V17.7578H21.4268V20.7166H22.4499ZM26.4288 17.7578V20.7166H25.4317L23.9844 19.0694V20.7166H23.0244V17.7578H24.0737L25.4763 19.3672V17.7578H26.4288ZM30.415 20.7166V17.7578H29.4626V19.3672L28.0599 17.7578H27.0107V20.7166H27.9706V19.0694L29.4179 20.7166H30.415ZM34.073 19.9816V20.7166H30.9961V17.7578H34.047V18.4965H31.9784V18.8772H33.9874V19.5971H31.9784V19.9816H34.073ZM38.0061 18.6586C38.0061 18.391 37.9425 18.1987 37.8086 18.0593C37.6338 17.8708 37.3326 17.7578 36.871 17.7578H34.5459V20.7166H35.5393V19.6726H36.4434L37.1691 20.7166H38.2778L37.3961 19.5104C37.5929 19.4803 37.7533 19.3597 37.857 19.2165C37.9501 19.0845 38.0061 18.8885 38.0061 18.6586ZM37.039 18.7528C37.039 18.8019 37.0314 18.8621 37.0049 18.9074C36.9678 18.9827 36.871 19.0129 36.7113 19.0129H35.543V18.4739H36.6924C36.849 18.4739 36.9534 18.5003 37.0049 18.5983C37.0314 18.636 37.039 18.6963 37.039 18.7528ZM17.4806 22.1818V23.6277C17.4806 24.1656 17.0536 24.4445 16.3569 24.4445C15.6827 24.4445 15.2275 24.1827 15.2275 23.5906V22.1818H15.5787V23.6021C15.5787 23.9265 15.84 24.1315 16.3709 24.1315C16.8204 24.1315 17.1323 23.9407 17.1323 23.6049V22.1818H17.4806ZM19.9804 24.416V24.0888H18.4605V22.1818H18.1094V24.416H19.9804ZM21.9759 22.1818V22.5063H20.9814V24.416H20.6273V22.5063H19.6328V22.1818H21.9759ZM24.4732 22.8136C24.4732 22.6542 24.4394 22.5376 24.3804 22.4436C24.2765 22.2871 24.077 22.1818 23.7455 22.1818H22.3184V24.416H22.6639V23.474H23.6696L24.2849 24.416H24.6894L24.0236 23.4142C24.1922 23.3943 24.3242 23.2975 24.3944 23.1723C24.4451 23.0869 24.4732 22.9617 24.4732 22.8136ZM24.1247 22.8421C24.1247 22.9047 24.1107 22.9816 24.0855 23.0328C24.0405 23.1153 23.9365 23.158 23.768 23.1609H22.6667V22.5006H23.7034C23.9141 22.5006 24.0264 22.5518 24.0855 22.6486C24.1107 22.6941 24.1247 22.7709 24.1247 22.8421ZM26.8468 23.8639H25.473L25.1864 24.416H24.8184L25.973 22.1818H26.386L27.5042 24.416H27.1277L26.8468 23.8639ZM25.6247 23.5479H26.7006L26.268 22.6913L26.1697 22.4835L26.0713 22.6913L25.6247 23.5479ZM31.0666 24.2026C31.1537 24.1001 31.1931 23.955 31.1931 23.7984C31.1931 23.6505 31.1509 23.5024 31.0638 23.4113C30.9767 23.326 30.8363 23.2549 30.6817 23.2406C30.7716 23.2263 30.8419 23.1694 30.8896 23.1096C30.9655 23.0214 31.0104 22.8791 31.0104 22.7368C31.0104 22.5859 30.9655 22.4493 30.8699 22.3554C30.766 22.2501 30.589 22.1818 30.3418 22.1818H28.8584V24.416H30.4514C30.7492 24.416 30.957 24.3392 31.0666 24.2026ZM30.648 22.808C30.648 22.9076 30.6171 22.9958 30.5638 23.047C30.5103 23.1068 30.4204 23.1324 30.3249 23.1324H29.2011V22.4892H30.2603C30.3895 22.4892 30.4878 22.5148 30.5553 22.5774C30.6143 22.6343 30.648 22.7169 30.648 22.808ZM30.7604 23.9862C30.6901 24.066 30.5693 24.1059 30.3923 24.1059H29.2011V23.4427H30.4008C30.5637 23.4427 30.6761 23.4768 30.7436 23.5423C30.8053 23.6021 30.8307 23.6789 30.8307 23.7671C30.8307 23.8582 30.811 23.935 30.7604 23.9862ZM33.744 24.0888V24.416H31.6875V22.1818H33.7243V22.5063H32.0303V23.1267H33.6766V23.4512H32.0303V24.0888H33.744ZM36.4886 23.7557C36.4886 23.3914 36.2503 23.2036 35.663 23.1353C35.6017 23.1264 35.4961 23.1143 35.3972 23.103L35.397 23.1029L35.3964 23.1029L35.3961 23.1028C35.3363 23.096 35.279 23.0894 35.2357 23.084C34.6907 23.0186 34.5249 22.9446 34.5249 22.7539C34.5249 22.5689 34.7075 22.4636 35.2582 22.4636C35.685 22.4636 35.9044 22.549 36.0142 22.7026C36.0452 22.7453 36.0618 22.7966 36.0702 22.8364H36.4463C36.4357 22.7709 36.4099 22.6799 36.3706 22.6059C36.2192 22.3412 35.9075 22.1505 35.2582 22.1505C34.4828 22.1476 34.1625 22.4323 34.1625 22.7852C34.1625 23.1381 34.4126 23.3174 35.0616 23.3943C35.1536 23.4059 35.304 23.4233 35.4095 23.4355L35.4717 23.4427C35.9748 23.5053 36.1322 23.5821 36.1322 23.7956C36.1322 23.992 35.9521 24.1343 35.3761 24.1343C34.9042 24.1343 34.6513 24.0489 34.5502 23.8838C34.5193 23.8383 34.4997 23.7671 34.4969 23.7188H34.126C34.1345 23.8212 34.1625 23.9322 34.2131 24.0205C34.3592 24.2909 34.7019 24.4474 35.3649 24.4474C36.1572 24.4474 36.4886 24.1884 36.4886 23.7557ZM39.008 22.1818V22.5063H38.0136V24.416H37.6594V22.5063H36.665V22.1818H39.008ZM14.2333 26.358C14.2333 26.1303 14.1884 25.9766 14.1125 25.8599C14.0058 25.6919 13.7978 25.6038 13.4354 25.6038H12.042V27.838H12.3903V27.1093H13.4214C13.7613 27.1065 13.9945 27.0268 14.1182 26.8447C14.1968 26.7337 14.2333 26.5743 14.2333 26.358ZM13.8793 26.358C13.8793 26.4718 13.868 26.5572 13.8316 26.6142C13.7669 26.7194 13.6349 26.7849 13.3624 26.7849H12.3903V25.9225H13.3737C13.6293 25.9225 13.7613 25.9823 13.8316 26.0989C13.8652 26.1502 13.8793 26.2442 13.8793 26.358ZM16.7762 27.5107V27.838H14.7197V25.6038H16.7565V25.9282H15.0625V26.5487H16.7088V26.8731H15.0625V27.5107H16.7762ZM19.4565 26.2356C19.4565 26.0762 19.4229 25.9595 19.3638 25.8656C19.2599 25.709 19.0605 25.6038 18.7289 25.6038H17.3018V27.838H17.6473V26.8959H18.6531L19.2683 27.838H19.6729L19.007 26.8361C19.1756 26.8162 19.3077 26.7194 19.3779 26.5942C19.4285 26.5088 19.4565 26.3836 19.4565 26.2356ZM19.1082 26.264C19.1082 26.3267 19.0941 26.4035 19.0689 26.4548C19.0239 26.5373 18.9199 26.58 18.7514 26.5828H17.6501V25.9225H18.6868C18.8975 25.9225 19.0098 25.9738 19.0689 26.0705C19.0941 26.116 19.1082 26.1929 19.1082 26.264ZM22.0606 25.6038V25.9282H20.4479V26.5544H21.9876V26.8874H20.4479V27.838H20.0996V25.6038H22.0606ZM23.6602 25.5639C23.191 25.5639 22.8679 25.6806 22.6375 25.9254C22.4437 26.1161 22.3594 26.3808 22.3594 26.7138C22.3594 27.0781 22.469 27.3513 22.6712 27.5363C22.8876 27.7555 23.219 27.8693 23.6602 27.8693C24.1153 27.8693 24.4692 27.7555 24.68 27.5249C24.8626 27.3371 24.9581 27.0696 24.9581 26.7109C24.9581 26.3637 24.8766 26.099 24.6828 25.9111C24.4608 25.6778 24.1293 25.5639 23.6602 25.5639ZM23.6602 27.5506C23.3511 27.5506 23.1319 27.4823 22.9662 27.3456C22.7977 27.2062 22.7162 26.9927 22.7162 26.7194C22.7162 26.4633 22.7864 26.2498 22.9213 26.1217C23.0758 25.9738 23.3118 25.8855 23.6574 25.8855C24.0141 25.8855 24.2361 25.9709 24.4018 26.1189C24.5423 26.2442 24.6041 26.4661 24.6041 26.7166C24.6041 26.9699 24.5395 27.1862 24.3962 27.3171C24.2305 27.4737 23.9973 27.5506 23.6602 27.5506ZM27.5015 25.8656C27.5605 25.9595 27.5942 26.0762 27.5942 26.2356C27.5942 26.3836 27.5662 26.5088 27.5155 26.5942C27.4453 26.7194 27.3133 26.8162 27.1447 26.8361L27.8105 27.838H27.406L26.7907 26.8959H25.785V27.838H25.4395V25.6038H26.8666C27.1981 25.6038 27.3976 25.709 27.5015 25.8656ZM27.2066 26.4548C27.2318 26.4035 27.2458 26.3267 27.2458 26.264C27.2458 26.1929 27.2318 26.116 27.2066 26.0705C27.1475 25.9738 27.0352 25.9225 26.8245 25.9225H25.7878V26.5828H26.8891C27.0576 26.58 27.1616 26.5373 27.2066 26.4548ZM30.954 27.838V25.6038H30.4989L29.5914 27.4424L28.7008 25.6038H28.2373V27.838H28.5716V26.1189L29.4032 27.838H29.7684L30.6197 26.1189V27.838H30.954ZM33.3145 27.2858H31.9407L31.6541 27.838H31.2861L32.4408 25.6038H32.8538L33.9719 27.838H33.5955L33.3145 27.2858ZM32.0925 26.9699H33.1684L32.7358 26.1132L32.6375 25.9054L32.5391 26.1132L32.0925 26.9699ZM36.5027 27.838V25.6038H36.1682V27.3399L34.7077 25.6038H34.3115V27.838H34.6515V26.0904L36.1236 27.838H36.5027ZM39.1681 27.0041H39.5336C39.5223 27.1264 39.4746 27.2858 39.3793 27.4196C39.2105 27.6957 38.8707 27.8693 38.3001 27.8693C37.7439 27.8693 37.3761 27.71 37.1847 27.4452C37.053 27.2773 36.9766 27.0382 36.9766 26.7138C36.9766 26.4234 37.0386 26.1957 37.162 26.0335C37.3534 25.7517 37.6993 25.5639 38.2774 25.5639C38.8843 25.5639 39.2158 25.7773 39.3959 26.0477C39.4799 26.1729 39.5193 26.321 39.5306 26.4462H39.1651C39.1515 26.3352 39.1091 26.2413 39.0365 26.1616C38.9071 26.0107 38.6626 25.9026 38.2752 25.9026C37.8756 25.9026 37.5918 26.0165 37.4571 26.2356C37.3761 26.3438 37.3391 26.5031 37.3391 26.7166C37.3391 26.9557 37.3928 27.1151 37.4768 27.2232C37.6372 27.4537 37.9717 27.542 38.2835 27.542C38.6543 27.542 38.8957 27.4652 39.0471 27.2858C39.1174 27.209 39.1568 27.1065 39.1681 27.0041ZM42.0471 27.838V27.5107H40.333V26.8731H41.9797V26.5487H40.333V25.9282H42.0274V25.6038H39.9902V27.838H42.0471ZM16.7752 31.3676L16.355 30.0575L15.9349 31.3676H14.5752L15.6752 32.1773L15.255 33.4873L16.355 32.6777L17.455 33.4873L17.0349 32.1773L18.1348 31.3676H16.7752ZM21.2048 30.0576L21.6335 31.3676H23.021L21.8985 32.1772L22.3272 33.4873L21.2048 32.6776L20.0824 33.4873L20.5111 32.1772L19.3887 31.3676H20.7761L21.2048 30.0576ZM26.4461 31.3676L26.0173 30.0576L25.5886 31.3676H24.2012L25.3236 32.1772L24.8949 33.4873L26.0173 32.6776L27.1398 33.4873L26.711 32.1772L27.8335 31.3676H26.4461ZM30.8298 30.0576L31.2585 31.3676H32.646L31.5235 32.1772L31.9522 33.4873L30.8298 32.6776L29.7074 33.4873L30.1361 32.1772L29.0137 31.3676H30.4011L30.8298 30.0576ZM36.1003 31.3676L35.6803 30.0576L35.2601 31.3676H33.9004L35.0004 32.1772L34.5802 33.4873L35.6803 32.6776L36.7799 33.4873L36.3599 32.1772L37.4602 31.3676H36.1003ZM26.0168 7.9537L26.3409 8.94424H27.3899L26.5413 9.55642L26.8654 10.5469L26.0168 9.93469L25.1681 10.5469L25.4923 9.55642L24.6436 8.94424H25.6926L26.0168 7.9537ZM29.9805 8.94424L29.6564 7.9537L29.3322 8.94424H28.2832L29.1319 9.55642L28.8077 10.5469L29.6564 9.93469L30.505 10.5469L30.1809 9.55642L31.0295 8.94424H29.9805ZM33.3232 7.9537L33.6409 8.94424H34.6689L33.8373 9.55642L34.155 10.5469L33.3232 9.93469L32.4915 10.5469L32.8092 9.55642L31.9775 8.94424H33.0055L33.3232 7.9537ZM40.9914 5.85398L40.9886 5.85366C41.9171 6.48228 42.775 7.18449 43.5593 7.94981C43.6736 8.04023 43.7842 8.1343 43.8904 8.23174C42.916 7.13 42.019 5.92096 41.2487 4.70551C41.1795 4.59641 41.1021 4.4797 41.0206 4.35677C40.4531 3.50108 39.6853 2.34342 40.1181 1.34613C41.9214 2.11165 43.6461 3.6078 44.365 5.34276C44.7605 6.29604 45.3444 7.82641 44.3891 8.75291L44.3893 8.75319C44.3795 8.76245 44.3696 8.77155 44.3596 8.78052C45.5557 10.1013 46.5525 11.5808 47.337 13.1729C46.8171 11.8707 46.4151 10.4907 46.1576 9.15131C46.1355 9.03624 46.1102 8.91434 46.0837 8.78729L46.0837 8.78717L46.0837 8.78698C45.8741 7.77912 45.5973 6.44827 46.3385 5.64359C47.7014 6.92821 48.6799 8.9496 48.7669 10.7222C48.818 11.7527 48.8631 13.3674 47.6986 13.949C48.3284 15.3806 48.7923 16.8938 49.0813 18.4573C49.0203 17.2571 49.0642 16.0408 49.2131 14.8911C49.2272 14.7813 49.2406 14.665 49.2546 14.5442L49.2546 14.5439L49.2546 14.5437L49.2546 14.5435L49.2547 14.5435C49.3728 13.5178 49.5289 12.1622 50.486 11.6255C51.3419 13.2893 51.637 15.5001 51.1973 17.2116C50.9489 18.1804 50.5314 19.7117 49.3002 19.9321C49.4823 21.549 49.4812 23.2079 49.2876 24.876C49.6134 23.5913 50.0416 22.324 50.5465 21.1394C50.5871 21.0442 50.6293 20.9424 50.6734 20.8359L50.6739 20.8348L50.6742 20.8341C51.1125 19.7768 51.7442 18.2528 52.9212 18.0137C53.3072 20.1413 52.9999 22.6068 51.9458 24.3854C51.3673 25.3608 50.382 26.82 49.0181 26.6019C48.6701 28.363 48.1157 29.9903 47.3829 31.4737C48.1508 30.2606 49.0103 29.0936 49.9211 28.0344C49.9919 27.9521 50.0666 27.8634 50.1449 27.7704C50.9028 26.8703 52.0015 25.5653 53.2327 25.7329C52.9814 27.9797 51.9212 30.3629 50.2896 31.7651C49.3806 32.5459 47.8889 33.6453 46.6068 32.8839C45.6186 34.5041 44.3997 35.9238 42.9945 37.1265C42.8068 37.3365 42.6082 37.5354 42.4003 37.7206C43.8957 36.6193 45.4761 35.5871 47.0606 34.6951C47.1663 34.6356 47.279 34.5704 47.3973 34.5018L47.3979 34.5015C48.4798 33.8751 50.0404 32.9713 51.2114 33.5825C50.1868 35.8132 48.2245 37.8211 46.0231 38.5828C44.7798 39.0132 42.7772 39.5467 41.765 38.2238L41.7646 38.224L41.7558 38.2117L41.752 38.2065L41.7521 38.2064C41.7353 38.1826 41.719 38.1584 41.7034 38.1341C39.8874 39.424 37.8214 40.3938 35.5825 41.0155C35.3003 41.1162 35.0143 41.2032 34.7271 41.2759C36.8769 40.9157 39.05 40.6043 41.192 40.3787C41.3543 40.3616 41.533 40.3391 41.7233 40.3152L41.7234 40.3152C43.0808 40.1447 45.0359 39.8991 45.9444 40.9828C43.8581 42.83 40.8605 43.9272 38.1657 43.7035C36.8524 43.5945 33.9588 43.2964 33.7209 41.4498L33.7207 41.4482L33.7201 41.4447C32.5736 41.6567 31.3902 41.7823 30.1791 41.8182L30.1738 41.6333C31.3805 41.5975 32.5591 41.4721 33.7004 41.2604C33.6307 40.0411 34.7397 38.8481 35.5617 37.9638L35.5618 37.9636L35.5621 37.9634L35.5627 37.9627C35.6788 37.8378 35.7892 37.719 35.8897 37.6072C37.1028 36.2566 38.3673 34.855 39.7855 33.6872C40.848 34.9367 40.2857 36.6225 39.6357 37.8254C39.0647 38.881 38.1112 39.7443 36.9964 40.3726C38.6612 39.7739 40.2111 38.97 41.6104 37.9742C41.0799 36.9601 41.4077 35.578 41.6639 34.4978L41.664 34.4971C41.6898 34.3885 41.7148 34.283 41.7382 34.1812C42.1097 32.5648 42.6243 30.8817 43.3886 29.3882C44.722 30.1018 44.8772 31.751 44.8061 33.0408C44.7452 34.1502 44.315 35.2906 43.6488 36.2835C44.7191 35.2517 45.6624 34.0807 46.4554 32.7793C45.5077 32.0533 45.32 30.642 45.1742 29.5457L45.1741 29.5456C45.1651 29.4778 45.1563 29.4113 45.1474 29.3462C44.9393 27.8126 44.841 26.1137 45.0998 24.5234C46.5278 24.7081 47.1044 26.1901 47.4397 27.3141C47.7728 28.4312 47.7313 29.8149 47.3683 31.0817C48.0212 29.6951 48.5192 28.1856 48.84 26.5615C47.7481 26.2398 47.1588 25.0279 46.6959 24.0758C46.6624 24.0071 46.6296 23.9396 46.5974 23.874C45.9443 22.5444 45.3918 20.9932 45.1943 19.4713C46.5338 19.1888 47.4782 20.3659 48.0935 21.2796C48.7244 22.2159 49.0791 23.5107 49.1137 24.7907C49.2983 23.1578 49.2971 21.5346 49.1188 19.9524C48.1121 20.0021 47.2925 19.1251 46.6633 18.452C46.6266 18.4127 46.5905 18.374 46.5551 18.3364C45.65 17.3741 44.7934 16.1672 44.25 14.9046C45.3148 14.316 46.3977 15.073 47.1665 15.6879C47.9415 16.3071 48.5161 17.2729 48.8666 18.3051C48.578 16.82 48.1297 15.3823 47.5297 14.0195C46.6044 14.3459 45.5857 13.7872 44.7978 13.3551C44.7514 13.3296 44.7058 13.3046 44.6611 13.2803C43.4972 12.6464 42.3098 11.7718 41.376 10.7596C42.2198 9.85725 43.5017 10.2274 44.4401 10.5652C45.2502 10.8569 45.995 11.4513 46.5987 12.1763C45.9255 11.0034 45.1293 9.9031 44.2161 8.89614C43.4295 9.46344 42.2996 9.27084 41.4159 9.1202C41.3531 9.10949 41.2915 9.09899 41.2314 9.08899C39.8458 8.85884 38.3723 8.41294 37.0654 7.78175C37.6027 6.62255 39.0504 6.5741 40.0584 6.59733C40.8838 6.61639 41.786 6.88229 42.6054 7.32387C41.97 6.77513 41.2921 6.26548 40.5731 5.79963C39.3842 5.62281 38.2095 5.2642 37.0514 4.9107C36.6499 4.78813 36.2504 4.66618 35.853 4.55264C35.2942 4.39293 34.7266 4.2452 34.157 4.09695C32.8111 3.74667 31.4541 3.39349 30.1758 2.87264C32.1684 2.06504 34.5171 2.22826 36.4206 2.77842C38.0832 3.25904 40.0303 4.17084 40.9914 5.85398ZM28.4025 3.72647H25.2861V4.19237H28.4025V3.72647ZM27.5697 41.3341L27.0675 39.7684L26.5654 41.3341H24.9404L26.2551 42.3017L25.7529 43.8674L27.0675 42.8997L28.3822 43.8674L27.8801 42.3017L29.1947 41.3341H27.5697Z" fill="#0F73F6"/>
</svg>
